Coordinates
version=1
nRows=14
nColumns=24
inDegrees=yes

Units are S.I. units (second, meters, Newtons, ...)
Angles are in degrees.

endheader
time	pelvis_tilt	pelvis_list	pelvis_rotation	pelvis_tx	pelvis_ty	pelvis_tz	hip_flexion_r	hip_adduction_r	hip_rotation_r	knee_angle_r	ankle_angle_r	subtalar_angle_r	mtp_angle_r	hip_flexion_l	hip_adduction_l	hip_rotation_l	knee_angle_l	ankle_angle_l	subtalar_angle_l	mtp_angle_l	lumbar_extension	lumbar_bending	lumbar_rotation
      1.96000000	     24.61896730	     -4.82680335	      3.50654862	      0.82315012	      1.01408366	      0.13947959	     -3.59956507	      8.06395978	     -9.17453501	    -18.55436896	      1.02031509	    -13.21399216	     16.96385235	    -33.04577560	     -7.54667718	     -6.67788276	    -36.00890406	     -3.41122600	     -1.42243448	     61.74945465	    -42.79435121	      5.27381788	     -0.12834521
      1.96500000	     24.60308347	     -5.05844896	      3.59610506	      0.82949956	      1.01449834	      0.14014007	     -3.86030302	      8.41429287	     -9.11409745	    -18.72234254	      1.44230079	    -13.36464660	     16.67267202	    -32.03796419	     -7.97398084	     -6.50182739	    -37.88318979	     -4.48766280	     -2.24961507	     61.88952657	    -42.74972180	      5.54301786	     -0.09347740
      1.97000000	     24.57076748	     -5.29184912	      3.69183317	      0.83582620	      1.01491122	      0.14073825	     -4.11457640	      8.74919946	     -9.12855315	    -18.89096758	      2.18203155	    -13.06030527	     13.68030740	    -31.00027835	     -8.39465492	     -6.29697483	    -39.70282793	     -5.55066795	     -3.15813725	     63.12488251	    -42.68574837	      5.82126220	     -0.01803577
      1.97500000	     24.54190596	     -5.49807296	      3.77113888	      0.84203378	      1.01532816	      0.14133718	     -4.39086413	      9.06280587	     -9.08843274	    -18.99411038	      2.55994528	    -13.17400057	     13.62362365	    -29.94755920	     -8.76087183	     -6.05947365	    -41.50085422	     -6.38105319	     -4.05931156	     62.88969160	    -42.63831103	      6.06512442	      0.03745918
      1.98000000	     24.50619597	     -5.71672795	      3.87294200	      0.84822828	      1.01576027	      0.14185690	     -4.68621239	      9.38254657	     -9.09846486	    -19.04622286	      2.91242081	    -13.17502495	     13.56112186	    -28.88002169	     -9.13391950	     -5.79108738	    -43.24751104	     -7.02604133	     -4.98299886	     62.61178640	    -42.57655506	      6.33761001	      0.11914766
      1.98500000	     24.45017752	     -5.85115712	      3.99388716	      0.85429223	      1.01619467	      0.14228630	     -4.94104375	      9.59450789	     -9.20449154	    -19.15051863	      3.54185751	    -12.94667575	     12.24189071	    -27.75546515	     -9.40662275	     -5.42227407	    -44.98217799	     -7.39105632	     -5.71631808	     59.81046559	    -42.50517988	      6.55155727	      0.06739452
      1.99000000	     24.41495150	     -5.99764700	      4.07646847	      0.86032105	      1.01667457	      0.14277854	     -5.24938380	      9.83103731	     -9.20328103	    -19.18296323	      3.91877777	    -12.96640735	     12.18447797	    -26.68205678	     -9.66674285	     -5.11992523	    -46.59041645	     -7.75236417	     -6.72362365	     59.56770121	    -42.46029238	      6.74833850	      0.08418139
      1.99500000	     24.38351567	     -6.11924008	      4.20206100	      0.86630684	      1.01719849	      0.14313684	     -5.57340089	     10.02743935	     -9.31669193	    -19.20063105	      4.44745844	    -12.72221127	     11.25175300	    -25.59477762	     -9.89855806	     -4.74960383	    -48.16459620	     -7.78486755	     -7.49882691	     57.10024760	    -42.41331327	      6.95614098	      0.06270726
      2.00000000	     24.33866400	     -6.21604693	      4.28636415	      0.87222018	      1.01774693	      0.14357673	     -5.89535970	     10.20565661	     -9.32941486	    -19.18412817	      4.81058673	    -12.68996395	     11.20844935	    -24.50969917	    -10.08061412	     -4.42305561	    -49.61947549	     -7.89173316	     -8.53110941	     56.82979066	    -42.36641871	      7.11042285	      0.04230699
      2.00500000	     24.29242070	     -6.26663028	      4.38729847	      0.87805742	      1.01831658	      0.14391835	     -6.21189023	     10.31877794	     -9.43579924	    -19.18472199	      5.24849717	    -12.53657284	     11.08229606	    -23.41729613	    -10.19679864	     -4.04567009	    -51.00386926	     -7.79757263	     -9.50849254	     56.16163589	    -42.31934322	      7.23955676	      0.02231282
      2.01000000	     24.29824944	     -6.33856430	      4.50200188	      0.88389803	      1.01899345	      0.14427463	     -6.63285237	     10.47314295	     -9.48591326	    -19.08983753	      5.67360207	    -12.31477018	     10.15421990	    -22.38928275	    -10.34682744	     -3.70537681	    -52.32741471	     -7.42267833	    -10.11512161	     52.71629027	    -42.32384243	      7.38988876	     -0.04900405
      2.01500000	     24.28418093	     -6.40549336	      4.59290500	      0.88967755	      1.01967645	      0.14467824	     -7.03638734	     10.62534097	     -9.49670886	    -18.97290745	      5.94038906	    -12.26583382	     10.13822236	    -21.35503828	    -10.47740004	     -3.40584039	    -53.52067492	     -7.22565356	    -11.07903117	     52.53124339	    -42.31711242	      7.51671756	     -0.05751070
      2.02000000	     24.22176809	     -6.35675805	      4.68529628	      0.89529081	      1.02030965	      0.14496639	     -7.35895924	     10.62969620	     -9.59227790	    -18.92562389	      6.38040693	    -12.08568267	     10.01395909	    -20.24567661	    -10.44861176	     -3.01469171	    -54.65919699	     -6.90705664	    -11.94493103	     51.82823706	    -42.27467568	      7.55299397	     -0.17477459
      2.02500000	     24.15842355	     -6.34609476	      4.79630077	      0.90090724	      1.02096049	      0.14530214	     -7.70762835	     10.69613614	     -9.63887974	    -18.80742664	      6.70292819	    -12.01473599	      9.83083944	    -19.13586700	    -10.47241321	     -2.65269888	    -55.72182084	     -6.54367599	    -12.74450144	     50.92802148	    -42.22512618	      7.62288195	     -0.29623839
